<?xml version="1.0" encoding="utf-8"?>
<!-- Generator: Adobe Illustrator 16.0.0, SVG Export Plug-In . SVG Version: 6.00 Build 0)  -->
<!DOCTYPE svg PUBLIC "-//W3C//DTD SVG 1.1//EN" "http://www.w3.org/Graphics/SVG/1.1/DTD/svg11.dtd">
<svg version="1.1" id="Layer_1" xmlns="http://www.w3.org/2000/svg" xmlns:xlink="http://www.w3.org/1999/xlink" x="0px" y="0px"
	 width="37.047px" height="41.75px" viewBox="0 0 37.047 41.75" enable-background="new 0 0 37.047 41.75" xml:space="preserve">
<g>
	<path fill="#666766" d="M10.006,5.088c0,2.762-2.253,5.016-5.016,5.016c-2.762,0-4.943-2.253-4.943-5.016S2.228,0,4.99,0
		C7.752,0,10.006,2.326,10.006,5.088z M0.919,41.217V13.084h8.142v28.133H0.919z M21.128,13.084v1.309
		c3.125-1.6,7.414-1.309,10.468,0.291c3.271,1.817,5.451,5.742,5.451,9.377v17.156h-7.996V24.061c0-0.799-0.727-2.108-1.381-2.326
		c-3.198-1.817-6.542,1.454-6.542,1.454v18.028h-8.142V13.084H21.128z"/>
</g>
</svg>
