<?xml version="1.0" encoding="utf-8"?>
<!-- Generator: Adobe Illustrator 16.0.0, SVG Export Plug-In . SVG Version: 6.00 Build 0)  -->
<!DOCTYPE svg PUBLIC "-//W3C//DTD SVG 1.1//EN" "http://www.w3.org/Graphics/SVG/1.1/DTD/svg11.dtd">
<svg version="1.1" id="Layer_1" xmlns="http://www.w3.org/2000/svg" xmlns:xlink="http://www.w3.org/1999/xlink" x="0px" y="0px"
	 width="37.047px" height="41.75px" viewBox="0 0 37.047 41.75" enable-background="new 0 0 37.047 41.75" xml:space="preserve">
<g>
	<path fill="#666766" d="M86.631,8.213c0,2.762-2.254,5.016-5.016,5.016c-2.763,0-4.943-2.253-4.943-5.016s2.181-5.088,4.943-5.088
		C84.377,3.125,86.631,5.451,86.631,8.213z M77.544,44.342V16.209h8.142v28.133H77.544z M97.753,16.209v1.309
		c3.125-1.6,7.414-1.309,10.468,0.291c3.271,1.817,5.451,5.742,5.451,9.377v17.156h-7.996V27.186c0-0.799-0.727-2.107-1.381-2.326
		c-3.198-1.817-6.542,1.454-6.542,1.454v18.028h-8.142V16.209H97.753z"/>
</g>
<g>
	<path fill="#FFFFFF" d="M32.996,14.183c0,0.248,0,0.556,0,0.868c0,9.977-7.5,21.319-21.198,21.319
		c-4.214,0-8.12-1.236-11.466-3.406c0.558,0.061,1.179,0.061,1.796,0.061c3.473,0,6.695-1.115,9.236-3.16
		c-3.286-0.061-6.011-2.23-6.942-5.209c0.497,0.127,0.868,0.188,1.365,0.188c0.742,0,1.362-0.121,1.983-0.248
		c-3.409-0.742-6.014-3.719-6.014-7.312c0,0,0,0,0-0.061c0.992,0.495,2.107,0.868,3.47,0.868c-2.107-1.302-3.346-3.598-3.346-6.203
		c0-1.423,0.373-2.665,0.991-3.78c3.72,4.587,9.173,7.565,15.373,7.813c-0.124-0.5-0.187-1.116-0.187-1.615
		c0-4.148,3.346-7.56,7.437-7.56c2.231,0,4.094,0.928,5.456,2.357c1.67-0.248,3.346-0.995,4.77-1.737
		c-0.615,1.671-1.731,3.099-3.28,4.088c1.549-0.182,2.973-0.616,4.274-1.176C35.722,11.705,34.42,13.068,32.996,14.183z"/>
</g>
</svg>
